{
  "accessors": [
    {
      "bufferView": 2,
      "componentType": 5126,
      "count": 65532,
      "max": [
        0.3818468749523163,
        1.7405728101730347,
        0.2852611839771271
      ],
      "min": [
        -0.4006843566894531,
        0.0005608201026916504,
        -0.2897352874279022
      ],
      "type": "VEC3"
    },
    {
      "bufferView": 2,
      "byteOffset": 786384,
      "componentType": 5126,
      "count": 65532,
      "max": [
        0.9999963045120239,
        0.9999785423278809,
        0.9999867677688599
      ],
      "min": [
        -0.9999946355819702,
        -0.9999995231628418,
        -0.9999880790710449
      ],
      "type": "VEC3"
    },
    {
      "bufferView": 3,
      "componentType": 5126,
      "count": 65532,
      "max": [
        0.999945878982544,
        0.9999997615814209,
        0.9999721050262451,
        1.0
      ],
      "min": [
        -0.9999791979789734,
        -0.9998852610588074,
        -0.9999833106994629,
        -1.0
      ],
      "type": "VEC4"
    },
    {
      "bufferView": 1,
      "componentType": 5126,
      "count": 65532,
      "max": [
        0.9998499751091003,
        0.9969310164451599
      ],
      "min": [
        0.0010100000072270632,
        0.0011320114135742188
      ],
      "type": "VEC2"
    },
    {
      "bufferView": 1,
      "byteOffset": 524256,
      "componentType": 5126,
      "count": 65532,
      "max": [
        0.9998499751091003,
        0.9969310164451599
      ],
      "min": [
        0.0010100000072270632,
        0.0011320114135742188
      ],
      "type": "VEC2"
    },
    {
      "bufferView": 1,
      "byteOffset": 1048512,
      "componentType": 5126,
      "count": 65532,
      "max": [
        0.9998499751091003,
        0.9969310164451599
      ],
      "min": [
        0.0010100000072270632,
        0.0011320114135742188
      ],
      "type": "VEC2"
    },
    {
      "bufferView": 1,
      "byteOffset": 1572768,
      "componentType": 5126,
      "count": 65532,
      "max": [
        0.9998499751091003,
        0.9969310164451599
      ],
      "min": [
        0.0010100000072270632,
        0.0011320114135742188
      ],
      "type": "VEC2"
    },
    {
      "bufferView": 0,
      "componentType": 5125,
      "count": 339966,
      "type": "SCALAR"
    },
    {
      "bufferView": 2,
      "byteOffset": 1572768,
      "componentType": 5126,
      "count": 65532,
      "max": [
        0.37314164638519287,
        1.7999999523162842,
        0.283547580242157
      ],
      "min": [
        -0.37407127022743225,
        0.00028842687606811523,
        -0.2995242774486542
      ],
      "type": "VEC3"
    },
    {
      "bufferView": 2,
      "byteOffset": 2359152,
      "componentType": 5126,
      "count": 65532,
      "max": [
        0.999995231628418,
        0.9998761415481567,
        0.9999998807907104
      ],
      "min": [
        -0.9999803304672241,
        -0.999994158744812,
        -0.9999529123306274
      ],
      "type": "VEC3"
    },
    {
      "bufferView": 3,
      "byteOffset": 1048512,
      "componentType": 5126,
      "count": 65532,
      "max": [
        0.9999843835830688,
        0.9999886751174927,
        0.9999840259552002,
        1.0
      ],
      "min": [
        -0.9999961256980896,
        -0.9999935626983643,
        -0.9999969601631165,
        -1.0
      ],
      "type": "VEC4"
    },
    {
      "bufferView": 1,
      "byteOffset": 2097024,
      "componentType": 5126,
      "count": 65532,
      "max": [
        0.9938840270042419,
        0.9999759793281555
      ],
      "min": [
        0.026372000575065613,
        0.006718993186950684
      ],
      "type": "VEC2"
    },
    {
      "bufferView": 1,
      "byteOffset": 2621280,
      "componentType": 5126,
      "count": 65532,
      "max": [
        0.9938840270042419,
        0.9999759793281555
      ],
      "min": [
        0.026372000575065613,
        0.006718993186950684
      ],
      "type": "VEC2"
    },
    {
      "bufferView": 1,
      "byteOffset": 3145536,
      "componentType": 5126,
      "count": 65532,
      "max": [
        0.9938840270042419,
        0.9999759793281555
      ],
      "min": [
        0.026372000575065613,
        0.006718993186950684
      ],
      "type": "VEC2"
    },
    {
      "bufferView": 1,
      "byteOffset": 3669792,
      "componentType": 5126,
      "count": 65532,
      "max": [
        0.9938840270042419,
        0.9999759793281555
      ],
      "min": [
        0.026372000575065613,
        0.006718993186950684
      ],
      "type": "VEC2"
    },
    {
      "bufferView": 0,
      "byteOffset": 1359864,
      "componentType": 5125,
      "count": 340584,
      "type": "SCALAR"
    },
    {
      "bufferView": 2,
      "byteOffset": 3145536,
      "componentType": 5126,
      "count": 65532,
      "max": [
        0.3781122863292694,
        1.7913742065429688,
        0.27432695031166077
      ],
      "min": [
        -0.3780007064342499,
        0.0,
        -0.2850729823112488
      ],
      "type": "VEC3"
    },
    {
      "bufferView": 2,
      "byteOffset": 3931920,
      "componentType": 5126,
      "count": 65532,
      "max": [
        0.9999858140945435,
        0.9999707937240601,
        0.9999792575836182
      ],
      "min": [
        -0.999996542930603,
        -0.9999890327453613,
        -0.999981164932251
      ],
      "type": "VEC3"
    },
    {
      "bufferView": 3,
      "byteOffset": 2097024,
      "componentType": 5126,
      "count": 65532,
      "max": [
        0.9999940991401672,
        1.0,
        0.999976634979248,
        1.0
      ],
      "min": [
        -0.9999943375587463,
        -0.9999968409538269,
        -0.9999540448188782,
        -1.0
      ],
      "type": "VEC4"
    },
    {
      "bufferView": 1,
      "byteOffset": 4194048,
      "componentType": 5126,
      "count": 65532,
      "max": [
        0.9988840222358704,
        0.9999780058860779
      ],
      "min": [
        0.001167000038549304,
        0.0005400180816650391
      ],
      "type": "VEC2"
    },
    {
      "bufferView": 1,
      "byteOffset": 4718304,
      "componentType": 5126,
      "count": 65532,
      "max": [
        0.9988840222358704,
        0.9999780058860779
      ],
      "min": [
        0.001167000038549304,
        0.0005400180816650391
      ],
      "type": "VEC2"
    },
    {
      "bufferView": 1,
      "byteOffset": 5242560,
      "componentType": 5126,
      "count": 65532,
      "max": [
        0.9988840222358704,
        0.9999780058860779
      ],
      "min": [
        0.001167000038549304,
        0.0005400180816650391
      ],
      "type": "VEC2"
    },
    {
      "bufferView": 1,
      "byteOffset": 5766816,
      "componentType": 5126,
      "count": 65532,
      "max": [
        0.9988840222358704,
        0.9999780058860779
      ],
      "min": [
        0.001167000038549304,
        0.0005400180816650391
      ],
      "type": "VEC2"
    },
    {
      "bufferView": 0,
      "byteOffset": 2722200,
      "componentType": 5125,
      "count": 339801,
      "type": "SCALAR"
    },
    {
      "bufferView": 2,
      "byteOffset": 4718304,
      "componentType": 5126,
      "count": 65532,
      "max": [
        0.3703632056713104,
        1.799943208694458,
        0.28777772188186646
      ],
      "min": [
        -0.37790802121162415,
        0.00021183490753173828,
        -0.2858607769012451
      ],
      "type": "VEC3"
    },
    {
      "bufferView": 2,
      "byteOffset": 5504688,
      "componentType": 5126,
      "count": 65532,
      "max": [
        0.9999974966049194,
        0.9999785423278809,
        0.999998927116394
      ],
      "min": [
        -0.9999865293502808,
        -0.9999525547027588,
        -0.9999955892562866
      ],
      "type": "VEC3"
    },
    {
      "bufferView": 3,
      "byteOffset": 3145536,
      "componentType": 5126,
      "count": 65532,
      "max": [
        0.9999998807907104,
        0.9999899864196777,
        0.9999697208404541,
        1.0
      ],
      "min": [
        -0.9998704195022583,
        -0.9999917149543762,
        -0.999987781047821,
        -1.0
      ],
      "type": "VEC4"
    },
    {
      "bufferView": 1,
      "byteOffset": 6291072,
      "componentType": 5126,
      "count": 65532,
      "max": [
        0.9839680194854736,
        0.9993259906768799
      ],
      "min": [
        0.010267999954521656,
        0.0005900263786315918
      ],
      "type": "VEC2"
    },
    {
      "bufferView": 1,
      "byteOffset": 6815328,
      "componentType": 5126,
      "count": 65532,
      "max": [
        0.9839680194854736,
        0.9993259906768799
      ],
      "min": [
        0.010267999954521656,
        0.0005900263786315918
      ],
      "type": "VEC2"
    },
    {
      "bufferView": 1,
      "byteOffset": 7339584,
      "componentType": 5126,
      "count": 65532,
      "max": [
        0.9839680194854736,
        0.9993259906768799
      ],
      "min": [
        0.010267999954521656,
        0.0005900263786315918
      ],
      "type": "VEC2"
    },
    {
      "bufferView": 1,
      "byteOffset": 7863840,
      "componentType": 5126,
      "count": 65532,
      "max": [
        0.9839680194854736,
        0.9993259906768799
      ],
      "min": [
        0.010267999954521656,
        0.0005900263786315918
      ],
      "type": "VEC2"
    },
    {
      "bufferView": 0,
      "byteOffset": 4081404,
      "componentType": 5125,
      "count": 337263,
      "type": "SCALAR"
    },
    {
      "bufferView": 2,
      "byteOffset": 6291072,
      "componentType": 5126,
      "count": 65532,
      "max": [
        0.40054628252983093,
        1.7987629175186157,
        0.2745491862297058
      ],
      "min": [
        -0.38754284381866455,
        0.005040645599365234,
        -0.2822992503643036
      ],
      "type": "VEC3"
    },
    {
      "bufferView": 2,
      "byteOffset": 7077456,
      "componentType": 5126,
      "count": 65532,
      "max": [
        0.9999974966049194,
        0.9999499320983887,
        0.9999992847442627
      ],
      "min": [
        -0.999981164932251,
        -0.9999353289604187,
        -0.9999768733978271
      ],
      "type": "VEC3"
    },
    {
      "bufferView": 3,
      "byteOffset": 4194048,
      "componentType": 5126,
      "count": 65532,
      "max": [
        0.9999568462371826,
        0.9999743103981018,
        0.9999871850013733,
        1.0
      ],
      "min": [
        -0.9999935030937195,
        -0.9999800324440002,
        -0.9999956488609314,
        -1.0
      ],
      "type": "VEC4"
    },
    {
      "bufferView": 1,
      "byteOffset": 8388096,
      "componentType": 5126,
      "count": 65532,
      "max": [
        0.999770998954773,
        0.9997739791870117
      ],
      "min": [
        0.0011360000353306532,
        0.000558018684387207
      ],
      "type": "VEC2"
    },
    {
      "bufferView": 1,
      "byteOffset": 8912352,
      "componentType": 5126,
      "count": 65532,
      "max": [
        0.999770998954773,
        0.9997739791870117
      ],
      "min": [
        0.0011360000353306532,
        0.000558018684387207
      ],
      "type": "VEC2"
    },
    {
      "bufferView": 1,
      "byteOffset": 9436608,
      "componentType": 5126,
      "count": 65532,
      "max": [
        0.999770998954773,
        0.9997739791870117
      ],
      "min": [
        0.0011360000353306532,
        0.000558018684387207
      ],
      "type": "VEC2"
    },
    {
      "bufferView": 1,
      "byteOffset": 9960864,
      "componentType": 5126,
      "count": 65532,
      "max": [
        0.999770998954773,
        0.9997739791870117
      ],
      "min": [
        0.0011360000353306532,
        0.000558018684387207
      ],
      "type": "VEC2"
    },
    {
      "bufferView": 0,
      "byteOffset": 5430456,
      "componentType": 5125,
      "count": 327552,
      "type": "SCALAR"
    },
    {
      "bufferView": 2,
      "byteOffset": 7863840,
      "componentType": 5126,
      "count": 65532,
      "max": [
        0.40199416875839233,
        1.7514777183532715,
        0.3133344054222107
      ],
      "min": [
        -0.3269326984882355,
        0.002724587917327881,
        -0.29310864210128784
      ],
      "type": "VEC3"
    },
    {
      "bufferView": 2,
      "byteOffset": 8650224,
      "componentType": 5126,
      "count": 65532,
      "max": [
        0.9999786615371704,
        0.9994924664497375,
        0.9999935626983643
      ],
      "min": [
        -0.9999445676803589,
        -0.9999890327453613,
        -0.999984860420227
      ],
      "type": "VEC3"
    },
    {
      "bufferView": 3,
      "byteOffset": 5242560,
      "componentType": 5126,
      "count": 65532,
      "max": [
        0.999985933303833,
        0.9999485611915588,
        0.9999537467956543,
        1.0
      ],
      "min": [
        -0.999980628490448,
        -0.9999588131904602,
        -0.9999390244483948,
        -1.0
      ],
      "type": "VEC4"
    },
    {
      "bufferView": 1,
      "byteOffset": 10485120,
      "componentType": 5126,
      "count": 65532,
      "max": [
        0.9998760223388672,
        0.9997950196266174
      ],
      "min": [
        0.0010639999527484179,
        0.000644981861114502
      ],
      "type": "VEC2"
    },
    {
      "bufferView": 1,
      "byteOffset": 11009376,
      "componentType": 5126,
      "count": 65532,
      "max": [
        0.9998760223388672,
        0.9997950196266174
      ],
      "min": [
        0.0010639999527484179,
        0.000644981861114502
      ],
      "type": "VEC2"
    },
    {
      "bufferView": 1,
      "byteOffset": 11533632,
      "componentType": 5126,
      "count": 65532,
      "max": [
        0.9998760223388672,
        0.9997950196266174
      ],
      "min": [
        0.0010639999527484179,
        0.000644981861114502
      ],
      "type": "VEC2"
    },
    {
      "bufferView": 1,
      "byteOffset": 12057888,
      "componentType": 5126,
      "count": 65532,
      "max": [
        0.9998760223388672,
        0.9997950196266174
      ],
      "min": [
        0.0010639999527484179,
        0.000644981861114502
      ],
      "type": "VEC2"
    },
    {
      "bufferView": 0,
      "byteOffset": 6740664,
      "componentType": 5125,
      "count": 300912,
      "type": "SCALAR"
    },
    {
      "bufferView": 2,
      "byteOffset": 9436608,
      "componentType": 5126,
      "count": 65532,
      "max": [
        0.36981943249702454,
        1.7989113330841064,
        0.12575876712799072
      ],
      "min": [
        -0.4001188278198242,
        7.18832015991211e-05,
        -0.24919581413269043
      ],
      "type": "VEC3"
    },
    {
      "bufferView": 2,
      "byteOffset": 10222992,
      "componentType": 5126,
      "count": 65532,
      "max": [
        0.999995231628418,
        0.9999707937240601,
        0.9999637603759766
      ],
      "min": [
        -0.9999865293502808,
        -0.9999997615814209,
        -0.9999960660934448
      ],
      "type": "VEC3"
    },
    {
      "bufferView": 3,
      "byteOffset": 6291072,
      "componentType": 5126,
      "count": 65532,
      "max": [
        0.9999820590019226,
        1.0,
        0.9999584555625916,
        1.0
      ],
      "min": [
        -0.9999536275863647,
        -0.9999935626983643,
        -1.0,
        -1.0
      ],
      "type": "VEC4"
    },
    {
      "bufferView": 1,
      "byteOffset": 12582144,
      "componentType": 5126,
      "count": 65532,
      "max": [
        0.9998480081558228,
        0.9999899864196777
      ],
      "min": [
        0.00023400000645779073,
        0.0006340146064758301
      ],
      "type": "VEC2"
    },
    {
      "bufferView": 1,
      "byteOffset": 13106400,
      "componentType": 5126,
      "count": 65532,
      "max": [
        0.9998480081558228,
        0.9999899864196777
      ],
      "min": [
        0.00023400000645779073,
        0.0006340146064758301
      ],
      "type": "VEC2"
    },
    {
      "bufferView": 1,
      "byteOffset": 13630656,
      "componentType": 5126,
      "count": 65532,
      "max": [
        0.9998480081558228,
        0.9999899864196777
      ],
      "min": [
        0.00023400000645779073,
        0.0006340146064758301
      ],
      "type": "VEC2"
    },
    {
      "bufferView": 1,
      "byteOffset": 14154912,
      "componentType": 5126,
      "count": 65532,
      "max": [
        0.9998480081558228,
        0.9999899864196777
      ],
      "min": [
        0.00023400000645779073,
        0.0006340146064758301
      ],
      "type": "VEC2"
    },
    {
      "bufferView": 0,
      "byteOffset": 7944312,
      "componentType": 5125,
      "count": 299184,
      "type": "SCALAR"
    },
    {
      "bufferView": 2,
      "byteOffset": 11009376,
      "componentType": 5126,
      "count": 65532,
      "max": [
        0.3519843816757202,
        1.771230697631836,
        0.01031857542693615
      ],
      "min": [
        -0.35996517539024353,
        0.00019860267639160156,
        -0.301211416721344
      ],
      "type": "VEC3"
    },
    {
      "bufferView": 2,
      "byteOffset": 11795760,
      "componentType": 5126,
      "count": 65532,
      "max": [
        0.9999738931655884,
        0.9999785423278809,
        0.9999998807907104
      ],
      "min": [
        -0.9999953508377075,
        -0.9999991655349731,
        -0.9999984502792358
      ],
      "type": "VEC3"
    },
    {
      "bufferView": 3,
      "byteOffset": 7339584,
      "componentType": 5126,
      "count": 65532,
      "max": [
        0.9999907612800598,
        0.9999892115592957,
        0.9999468326568604,
        1.0
      ],
      "min": [
        -0.9999977946281433,
        -0.9999483823776245,
        -0.9999315738677979,
        -1.0
      ],
      "type": "VEC4"
    },
    {
      "bufferView": 1,
      "byteOffset": 14679168,
      "componentType": 5126,
      "count": 65532,
      "max": [
        0.9999899864196777,
        0.9999989867210388
      ],
      "min": [
        4.400000034365803e-05,
        0.0006240010261535645
      ],
      "type": "VEC2"
    },
    {
      "bufferView": 1,
      "byteOffset": 15203424,
      "componentType": 5126,
      "count": 65532,
      "max": [
        0.9999899864196777,
        0.9999989867210388
      ],
      "min": [
        4.400000034365803e-05,
        0.0006240010261535645
      ],
      "type": "VEC2"
    },
    {
      "bufferView": 1,
      "byteOffset": 15727680,
      "componentType": 5126,
      "count": 65532,
      "max": [
        0.9999899864196777,
        0.9999989867210388
      ],
      "min": [
        4.400000034365803e-05,
        0.0006240010261535645
      ],
      "type": "VEC2"
    },
    {
      "bufferView": 1,
      "byteOffset": 16251936,
      "componentType": 5126,
      "count": 65532,
      "max": [
        0.9999899864196777,
        0.9999989867210388
      ],
      "min": [
        4.400000034365803e-05,
        0.0006240010261535645
      ],
      "type": "VEC2"
    },
    {
      "bufferView": 0,
      "byteOffset": 9141048,
      "componentType": 5125,
      "count": 268401,
      "type": "SCALAR"
    },
    {
      "bufferView": 2,
      "byteOffset": 12582144,
      "componentType": 5126,
      "count": 24541,
      "max": [
        0.36142629384994507,
        1.7990493774414063,
        0.018572678789496422
      ],
      "min": [
        -0.38042640686035156,
        0.001095116138458252,
        -0.0803479477763176
      ],
      "type": "VEC3"
    },
    {
      "bufferView": 2,
      "byteOffset": 12876636,
      "componentType": 5126,
      "count": 24541,
      "max": [
        0.9999293684959412,
        0.9999785423278809,
        0.9999402761459351
      ],
      "min": [
        -0.9999746084213257,
        -0.9993253350257874,
        -0.9999817609786987
      ],
      "type": "VEC3"
    },
    {
      "bufferView": 3,
      "byteOffset": 8388096,
      "componentType": 5126,
      "count": 24541,
      "max": [
        0.9998539686203003,
        0.9999532103538513,
        0.9999150633811951,
        1.0
      ],
      "min": [
        -0.9998844265937805,
        -0.999943196773529,
        -0.999910831451416,
        -1.0
      ],
      "type": "VEC4"
    },
    {
      "bufferView": 1,
      "byteOffset": 16776192,
      "componentType": 5126,
      "count": 24541,
      "max": [
        0.9999340176582336,
        0.999908983707428
      ],
      "min": [
        0.002647999906912446,
        0.0006669759750366211
      ],
      "type": "VEC2"
    },
    {
      "bufferView": 1,
      "byteOffset": 16972520,
      "componentType": 5126,
      "count": 24541,
      "max": [
        0.9999340176582336,
        0.999908983707428
      ],
      "min": [
        0.002647999906912446,
        0.0006669759750366211
      ],
      "type": "VEC2"
    },
    {
      "bufferView": 1,
      "byteOffset": 17168848,
      "componentType": 5126,
      "count": 24541,
      "max": [
        0.9999340176582336,
        0.999908983707428
      ],
      "min": [
        0.002647999906912446,
        0.0006669759750366211
      ],
      "type": "VEC2"
    },
    {
      "bufferView": 1,
      "byteOffset": 17365176,
      "componentType": 5126,
      "count": 24541,
      "max": [
        0.9999340176582336,
        0.999908983707428
      ],
      "min": [
        0.002647999906912446,
        0.0006669759750366211
      ],
      "type": "VEC2"
    },
    {
      "bufferView": 0,
      "byteOffset": 10214652,
      "componentType": 5125,
      "count": 91596,
      "type": "SCALAR"
    }
  ],
  "asset": {
    "extras": {
      "author": "Galaxy Abundant™ (https://sketchfab.com/galaxyabundant)",
      "license": "CC-BY-4.0 (http://creativecommons.org/licenses/by/4.0/)",
      "source": "https://sketchfab.com/3d-models/ga-free-801-fantasy-villager-10-1154cacb04ef4057ba379138532bcb51",
      "title": "GA Free_801_Fantasy Villager 1.0"
    },
    "generator": "Sketchfab-17.17.0",
    "version": "2.0"
  },
  "bufferViews": [
    {
      "buffer": 0,
      "byteLength": 10581036,
      "name": "floatBufferViews",
      "target": 34963
    },
    {
      "buffer": 0,
      "byteLength": 17561504,
      "byteOffset": 10581036,
      "byteStride": 8,
      "name": "floatBufferViews",
      "target": 34962
    },
    {
      "buffer": 0,
      "byteLength": 13171128,
      "byteOffset": 28142540,
      "byteStride": 12,
      "name": "floatBufferViews",
      "target": 34962
    },
    {
      "buffer": 0,
      "byteLength": 8780752,
      "byteOffset": 41313668,
      "byteStride": 16,
      "name": "floatBufferViews",
      "target": 34962
    }
  ],
  "buffers": [
    {
      "byteLength": 50094420,
      "uri": "scene.bin"
    }
  ],
  "extensionsRequired": [
    "KHR_materials_pbrSpecularGlossiness"
  ],
  "extensionsUsed": [
    "KHR_materials_pbrSpecularGlossiness"
  ],
  "images": [
    {
      "uri": "textures/Material_0_diffuse.jpeg"
    },
    {
      "uri": "textures/Material_0_specularGlossiness.png"
    },
    {
      "uri": "textures/Material_0_normal.jpeg"
    }
  ],
  "materials": [
    {
      "doubleSided": true,
      "extensions": {
        "KHR_materials_pbrSpecularGlossiness": {
          "diffuseFactor": [
            1.0,
            1.0,
            1.0,
            1.0
          ],
          "diffuseTexture": {
            "index": 0
          },
          "glossinessFactor": 1.0,
          "specularFactor": [
            1.0,
            1.0,
            1.0
          ],
          "specularGlossinessTexture": {
            "index": 1,
            "texCoord": 1
          }
        }
      },
      "name": "Material_0",
      "normalTexture": {
        "index": 2,
        "texCoord": 2
      }
    }
  ],
  "meshes": [
    {
      "name": "Object_0",
      "primitives": [
        {
          "attributes": {
            "NORMAL": 1,
            "POSITION": 0,
            "TANGENT": 2,
            "TEXCOORD_0": 3,
            "TEXCOORD_1": 4,
            "TEXCOORD_2": 5,
            "TEXCOORD_3": 6
          },
          "indices": 7,
          "material": 0,
          "mode": 4
        }
      ]
    },
    {
      "name": "Object_1",
      "primitives": [
        {
          "attributes": {
            "NORMAL": 9,
            "POSITION": 8,
            "TANGENT": 10,
            "TEXCOORD_0": 11,
            "TEXCOORD_1": 12,
            "TEXCOORD_2": 13,
            "TEXCOORD_3": 14
          },
          "indices": 15,
          "material": 0,
          "mode": 4
        }
      ]
    },
    {
      "name": "Object_2",
      "primitives": [
        {
          "attributes": {
            "NORMAL": 17,
            "POSITION": 16,
            "TANGENT": 18,
            "TEXCOORD_0": 19,
            "TEXCOORD_1": 20,
            "TEXCOORD_2": 21,
            "TEXCOORD_3": 22
          },
          "indices": 23,
          "material": 0,
          "mode": 4
        }
      ]
    },
    {
      "name": "Object_3",
      "primitives": [
        {
          "attributes": {
            "NORMAL": 25,
            "POSITION": 24,
            "TANGENT": 26,
            "TEXCOORD_0": 27,
            "TEXCOORD_1": 28,
            "TEXCOORD_2": 29,
            "TEXCOORD_3": 30
          },
          "indices": 31,
          "material": 0,
          "mode": 4
        }
      ]
    },
    {
      "name": "Object_4",
      "primitives": [
        {
          "attributes": {
            "NORMAL": 33,
            "POSITION": 32,
            "TANGENT": 34,
            "TEXCOORD_0": 35,
            "TEXCOORD_1": 36,
            "TEXCOORD_2": 37,
            "TEXCOORD_3": 38
          },
          "indices": 39,
          "material": 0,
          "mode": 4
        }
      ]
    },
    {
      "name": "Object_5",
      "primitives": [
        {
          "attributes": {
            "NORMAL": 41,
            "POSITION": 40,
            "TANGENT": 42,
            "TEXCOORD_0": 43,
            "TEXCOORD_1": 44,
            "TEXCOORD_2": 45,
            "TEXCOORD_3": 46
          },
          "indices": 47,
          "material": 0,
          "mode": 4
        }
      ]
    },
    {
      "name": "Object_6",
      "primitives": [
        {
          "attributes": {
            "NORMAL": 49,
            "POSITION": 48,
            "TANGENT": 50,
            "TEXCOORD_0": 51,
            "TEXCOORD_1": 52,
            "TEXCOORD_2": 53,
            "TEXCOORD_3": 54
          },
          "indices": 55,
          "material": 0,
          "mode": 4
        }
      ]
    },
    {
      "name": "Object_7",
      "primitives": [
        {
          "attributes": {
            "NORMAL": 57,
            "POSITION": 56,
            "TANGENT": 58,
            "TEXCOORD_0": 59,
            "TEXCOORD_1": 60,
            "TEXCOORD_2": 61,
            "TEXCOORD_3": 62
          },
          "indices": 63,
          "material": 0,
          "mode": 4
        }
      ]
    },
    {
      "name": "Object_8",
      "primitives": [
        {
          "attributes": {
            "NORMAL": 65,
            "POSITION": 64,
            "TANGENT": 66,
            "TEXCOORD_0": 67,
            "TEXCOORD_1": 68,
            "TEXCOORD_2": 69,
            "TEXCOORD_3": 70
          },
          "indices": 71,
          "material": 0,
          "mode": 4
        }
      ]
    }
  ],
  "nodes": [
    {
      "children": [
        1
      ],
      "matrix": [
        1.0,
        0.0,
        0.0,
        0.0,
        0.0,
        2.220446049250313e-16,
        -1.0,
        0.0,
        0.0,
        1.0,
        2.220446049250313e-16,
        0.0,
        0.0,
        0.0,
        0.0,
        1.0
      ],
      "name": "Sketchfab_model"
    },
    {
      "children": [
        2
      ],
      "name": "root"
    },
    {
      "children": [
        3
      ],
      "matrix": [
        1.0,
        0.0,
        0.0,
        0.0,
        0.0,
        2.220446049250313e-16,
        1.0,
        0.0,
        0.0,
        -1.0,
        2.220446049250313e-16,
        0.0,
        0.0,
        0.0,
        0.0,
        1.0
      ],
      "name": "GLTF_SceneRootNode"
    },
    {
      "children": [
        4,
        5,
        6,
        7,
        8,
        9,
        10,
        11,
        12
      ],
      "name": "Mesh_0_0"
    },
    {
      "mesh": 0,
      "name": "Object_4"
    },
    {
      "mesh": 1,
      "name": "Object_5"
    },
    {
      "mesh": 2,
      "name": "Object_6"
    },
    {
      "mesh": 3,
      "name": "Object_7"
    },
    {
      "mesh": 4,
      "name": "Object_8"
    },
    {
      "mesh": 5,
      "name": "Object_9"
    },
    {
      "mesh": 6,
      "name": "Object_10"
    },
    {
      "mesh": 7,
      "name": "Object_11"
    },
    {
      "mesh": 8,
      "name": "Object_12"
    }
  ],
  "samplers": [
    {
      "magFilter": 9729,
      "minFilter": 9987,
      "wrapS": 10497,
      "wrapT": 10497
    }
  ],
  "scene": 0,
  "scenes": [
    {
      "name": "Sketchfab_Scene",
      "nodes": [
        0
      ]
    }
  ],
  "textures": [
    {
      "sampler": 0,
      "source": 0
    },
    {
      "sampler": 0,
      "source": 1
    },
    {
      "sampler": 0,
      "source": 2
    }
  ]
}
